<svg width="25" height="31" viewBox="0 0 25 31" fill="none" xmlns="http://www.w3.org/2000/svg">
<path d="M23.3723 21.8936L15.4067 13.9917C16.4396 12.6897 17.0582 11.0497 17.0582 9.26815C17.0582 5.04801 13.5971 1.61475 9.34293 1.61475C5.08876 1.61475 1.62781 5.04801 1.62781 9.26815C1.62781 13.4883 5.08876 16.9217 9.34293 16.9217C11.1389 16.9217 12.7921 16.3081 14.1046 15.2834L22.0702 23.1852L23.3723 21.8936ZM9.34293 15.0949C6.10418 15.0949 3.46932 12.481 3.46932 9.26815C3.46932 6.0553 6.10418 3.44152 9.34293 3.44152C12.5817 3.44152 15.2167 6.0553 15.2167 9.26815C15.2167 12.481 12.5817 15.0949 9.34293 15.0949Z" fill="black"/>
</svg>
