<svg width="48" height="60" viewBox="0 0 48 60" fill="none" xmlns="http://www.w3.org/2000/svg">
<path fill-rule="evenodd" clip-rule="evenodd" d="M19.1 8.00004H9C8.20435 8.00004 7.44129 8.31611 6.87868 8.87872C6.31607 9.44133 6 10.2044 6 11C6 11.7957 6.31607 12.5588 6.87868 13.1214C7.44129 13.684 8.20435 14 9 14H10.5V40C10.5004 41.0608 10.9219 42.078 11.672 42.828C12.4221 43.5781 13.4393 43.9997 14.5 44H33.5C34.5607 43.9997 35.5779 43.5781 36.328 42.828C37.0781 42.078 37.4996 41.0608 37.5 40V14H39C39.7956 13.9997 40.5584 13.6836 41.121 13.121C41.6835 12.5585 41.9997 11.7956 42 11V11C41.9997 10.2045 41.6835 9.4416 41.121 8.87905C40.5584 8.31651 39.7956 8.00034 39 8.00004H28.9C28.6692 6.8708 28.0555 5.85593 27.1626 5.12707C26.2698 4.39822 25.1526 4.00012 24 4.00012C22.8474 4.00012 21.7302 4.39822 20.8374 5.12707C19.9445 5.85593 19.3308 6.8708 19.1 8.00004V8.00004ZM35.5 14V40C35.4998 40.5304 35.289 41.039 34.914 41.414C34.539 41.7891 34.0304 41.9998 33.5 42H14.5C13.9696 41.9998 13.461 41.7891 13.086 41.414C12.711 41.039 12.5002 40.5304 12.5 40V14H35.5ZM23 19V37C23 37.2653 23.1054 37.5196 23.2929 37.7071C23.4804 37.8947 23.7348 38 24 38C24.2652 38 24.5196 37.8947 24.7071 37.7071C24.8946 37.5196 25 37.2653 25 37V19C25 18.7348 24.8946 18.4805 24.7071 18.2929C24.5196 18.1054 24.2652 18 24 18C23.7348 18 23.4804 18.1054 23.2929 18.2929C23.1054 18.4805 23 18.7348 23 19ZM16 19V37C16 37.2653 16.1054 37.5196 16.2929 37.7071C16.4804 37.8947 16.7348 38 17 38C17.2652 38 17.5196 37.8947 17.7071 37.7071C17.8946 37.5196 18 37.2653 18 37V19C18 18.7348 17.8946 18.4805 17.7071 18.2929C17.5196 18.1054 17.2652 18 17 18C16.7348 18 16.4804 18.1054 16.2929 18.2929C16.1054 18.4805 16 18.7348 16 19ZM30 19V37C30 37.2653 30.1054 37.5196 30.2929 37.7071C30.4804 37.8947 30.7348 38 31 38C31.2652 38 31.5196 37.8947 31.7071 37.7071C31.8946 37.5196 32 37.2653 32 37V19C32 18.7348 31.8946 18.4805 31.7071 18.2929C31.5196 18.1054 31.2652 18 31 18C30.7348 18 30.4804 18.1054 30.2929 18.2929C30.1054 18.4805 30 18.7348 30 19ZM39 12H9C8.73491 11.9995 8.4808 11.8941 8.293 11.707C8.10805 11.5178 8.00312 11.2646 8 11C8.00011 10.7349 8.1055 10.4806 8.29301 10.2931C8.48052 10.1055 8.73482 10.0001 9 10H39C39.2652 10 39.5196 10.1054 39.7071 10.2929C39.8946 10.4805 40 10.7348 40 11C40 11.2653 39.8946 11.5196 39.7071 11.7071C39.5196 11.8947 39.2652 12 39 12ZM26.829 8.00004C26.6221 7.4151 26.2389 6.90868 25.7323 6.55049C25.2257 6.19231 24.6205 5.99998 24 5.99998C23.3795 5.99998 22.7743 6.19231 22.2677 6.55049C21.7611 6.90868 21.3779 7.4151 21.171 8.00004H26.829Z" fill="#FFFFFF"/>
</svg>
