<svg width="70" height="87" viewBox="0 0 70 87" fill="none" xmlns="http://www.w3.org/2000/svg">
<path d="M11.7141 53.2357C9.34295 55.5892 9.34295 59.4078 11.7141 61.7631C14.0872 64.1183 17.9323 64.1183 20.3034 61.7631C22.6745 59.4078 22.6745 55.5888 20.3034 53.2357C17.9323 50.878 14.0874 50.878 11.7141 53.2357Z" fill="black"/>
<path d="M14.3437 37.1255C14.3437 33.381 11.2848 30.3395 7.51243 30.3395C3.74008 30.3395 0.681137 33.381 0.681137 37.1255C0.681137 40.8741 3.74008 43.9115 7.51243 43.9115C11.2848 43.9115 14.3437 40.8745 14.3437 37.1255Z" fill="black"/>
<path d="M16.0077 9.21494C11.8166 9.21494 8.41806 12.59 8.41806 16.755C8.41806 20.9179 11.8166 24.2929 16.0077 24.2929C20.2009 24.2929 23.5974 20.9179 23.5974 16.755C23.5973 12.5899 20.2009 9.21494 16.0077 9.21494Z" fill="black"/>
<path d="M36.5166 0.00109863C31.9069 0.00109863 28.1684 3.71586 28.1684 8.29519C28.1684 12.8744 31.9066 16.5891 36.5166 16.5891C41.1306 16.5891 44.8665 12.8744 44.8665 8.29519C44.8689 3.71586 41.1306 0.00109863 36.5166 0.00109863Z" fill="black"/>
<path d="M36.5166 59.0426C33.5837 59.0426 31.2062 61.4045 31.2062 64.3226C31.2062 67.2347 33.5839 69.5989 36.5166 69.5989C39.4517 69.5989 41.8313 67.2346 41.8313 64.3226C41.8313 61.4045 39.4517 59.0426 36.5166 59.0426Z" fill="black"/>
<path d="M65.521 33.3557C63.4255 33.3557 61.7272 35.042 61.7272 37.1256C61.7272 39.2093 63.4255 40.8955 65.521 40.8955C67.6186 40.8955 69.3189 39.2093 69.3189 37.1256C69.3189 35.042 67.6186 33.3557 65.521 33.3557Z" fill="black"/>
<path d="M53.8065 54.2998C52.0293 56.0646 52.0293 58.93 53.8065 60.6972C55.586 62.4644 58.4675 62.4644 60.2491 60.6972C62.0263 58.93 62.0263 56.065 60.2491 54.2998C58.4674 52.5327 55.5859 52.5327 53.8065 54.2998Z" fill="black"/>
<path d="M57.3182 19.4799C58.9971 19.4799 60.3558 18.1311 60.3558 16.4638C60.3558 14.7986 58.9971 13.4476 57.3182 13.45C55.6436 13.45 54.2806 14.7986 54.2828 16.4638C54.2828 18.1311 55.6436 19.4799 57.3182 19.4799Z" fill="black"/>
</svg>
