<svg width="64" height="80" viewBox="0 0 64 80" fill="none" xmlns="http://www.w3.org/2000/svg">
<path d="M29 7C16.8692 7 7 16.8692 7 29C7 41.1308 16.8692 51 29 51C41.1308 51 51 41.1308 51 29C51 16.8692 41.1308 7 29 7ZM39.5785 38.3333C39.9226 38.6774 39.9226 39.2335 39.5785 39.5776C39.4069 39.7492 39.1816 39.8354 38.9563 39.8354C38.731 39.8354 38.5058 39.7492 38.3342 39.5776L29 30.2443L19.6667 39.5785C19.4951 39.7501 19.2698 39.8363 19.0446 39.8363C18.8193 39.8363 18.594 39.7501 18.4224 39.5785C18.0783 39.2344 18.0783 38.6782 18.4224 38.3342L27.7557 29L18.4215 19.6667C18.0774 19.3226 18.0774 18.7665 18.4215 18.4224C18.7656 18.0783 19.3218 18.0783 19.6658 18.4224L29 27.7557L38.3342 18.4224C38.6782 18.0783 39.2344 18.0783 39.5785 18.4224C39.9226 18.7665 39.9226 19.3226 39.5785 19.6667L30.2443 29L39.5785 38.3333Z" fill="white"/>
</svg>
